<svg xmlns="http://www.w3.org/2000/svg" viewBox="0 0 512 512">
  <defs>
    <linearGradient id="grad" x1="0%" y1="0%" x2="100%" y2="100%">
      <stop offset="0%" style="stop-color:#f97316;stop-opacity:1" />
      <stop offset="100%" style="stop-color:#ea580c;stop-opacity:1" />
    </linearGradient>
  </defs>
  <rect width="512" height="512" rx="85" fill="url(#grad)"/>
  <g fill="white">
    <!-- Headphones -->
    <path d="M256 107c-82.4 0-149 66.6-149 149v85c0 11.8 9.5 21 21 21h43c11.8 0 21-9.5 21-21v-64c0-11.8-9.5-21-21-21h-21v0c0-58.8 47.7-107 107-107s107 47.7 107 107v0h-21c-11.8 0-21 9.5-21 21v64c0 11.8 9.5 21 21 21h43c11.8 0 21-9.5 21-21v-85c0-82.4-66.6-149-149-149z"/>
    <!-- Sound waves -->
    <rect x="229" y="277" width="54" height="107" rx="11"/>
  </g>
</svg>
